PathFileType	4	(X/Y/Z)	C:/Users/beibeiliu/ov580/test_trc/User2\sequence.11_training_dense_right.trc
DataRate	CameraRate	NumFrames	NumMarkers	Units	OrigDataRate	OrigDataStartFrame	OrigNumFrames
120	120	14	19	mm	120	1	366
Frame#	Time	ThumbCMC			ThumbMCP			ThumbIP			ThumbTip			IndexMCP			IndexPIP			IndexTip			MiddleMCP			MiddlePIP			MiddleTip			RingMCP			RingPIP			RingTip			PinkyMCP			PinkyPIP			PinkyTip			BackHand1			BackHand2			BackHand3	
		X0	Y0	Z0	X1	Y1	Z1	X2	Y2	Z2	X3	Y3	Z3	X4	Y4	Z4	X5	Y5	Z5	X6	Y6	Z6	X7	Y7	Z7	X8	Y8	Z8	X9	Y9	Z9	X10	Y10	Z10	X11	Y11	Z11	X12	Y12	Z12	X13	Y13	Z13	X14	Y14	Z14	X15	Y15	Z15	X16	Y16	Z16	X17	Y17	Z17	X18	Y18	Z18	
0	0	64.751	1.13833	120.114	33.7382	-5.58691	106.146	9.10791	-14.5563	83.3344	-7.14845	-23.4541	67.9398	66.8736	7.25169	35.0958	57.3934	2.57526	5.46153	48.4228	-0.310422	-16.8642	98.4414	3.56101	23.6001	93.0727	-2.54487	-6.97239	95.0657	-11.0411	-38.3955	119.857	-6.51045	27.1261	121.551	-11.6191	0.29472	124.552	-15.8611	-28.4095	141.044	-19.3144	43.1539	150.618	-25.8551	20.1001	160.189	-27.5298	0.623196	124.218	7.42075	81.8878	129.066	17.9607	114.691	92.9877	20.3957	102.033	
1	0.00833333	61.1235	1.37108	115.991	37.2597	-6.47882	106.575	9.69811	-14.4579	81.9678	-9.90738	-23.1435	71.6191	65.6421	6.50127	35.371	54.2997	4.23506	6.46938	50.1099	-2.07998	-20.9085	93.536	4.28266	24.8742	90.6922	-2.7257	-10.9567	92.9111	-10.4409	-40.4741	116.348	-5.70507	24.6757	124.445	-12.2095	3.19008	121.725	-15.535	-28.2294	139.199	-19.2922	43.5028	150.108	-25.513	18.6017	155.892	-27.3369	-4.48881	122.792	7.09646	81.817	128.256	17.0057	114.034	91.0628	21.1436	98.846	
2	0.0166667	60.8361	1.92424	121.537	36.6497	-6.94183	104.284	8.14026	-14.0772	83.7146	-7.78692	-22.9439	69.3308	65.3042	6.49012	35.0353	53.6246	4.39767	10.5569	50.5574	-1.40348	-17.6085	92.5607	3.86327	19.8736	89.7445	-2.43555	-10.338	92.3508	-10.9983	-41.6645	118.543	-6.22698	26.1143	119.64	-11.5357	3.17964	121.519	-16.3076	-26.8856	139.131	-17.9911	41.9668	148.709	-26.3664	21.0337	154.943	-26.9914	-0.433594	123.076	7.24147	80.5133	130.572	17.2577	110.702	92.9231	21.5161	100.01	
3	0.025	59.0553	2.08864	119.128	34.701	-6.05816	107.908	8.04908	-14.0887	82.7641	-10.5625	-23.401	69.5801	63.2513	7.08859	37.6256	52.4305	3.75296	6.79594	50.6602	-1.64378	-19.0102	96.2686	3.42101	22.061	92.969	-3.66279	-11.2279	93.8997	-12.2847	-39.4757	116.779	-5.41555	24.6081	120.806	-11.5932	-0.50404	119.888	-16.4221	-27.2225	138.423	-18.3915	43.5059	146.554	-26.226	22.927	156.844	-27.4531	-3.50643	120.321	9.19564	80.7715	129.14	15.5283	114.088	88.4724	20.6045	97.4764	
4	0.0333333	57.4779	3.02263	118.022	35.0536	-6.43165	106.86	7.39797	-14.1909	85.0018	-10.3109	-24.5684	68.921	63.7749	7.04523	33.6698	52.5386	4.76937	9.92071	50.4089	-2.40832	-17.9924	91.6061	4.59163	25.8285	90.1906	-3.98636	-10.7888	90.256	-10.9315	-37.6942	115.835	-6.37755	29.8886	117.664	-11.767	-0.940036	120.117	-15.5316	-28.4739	138.918	-19.8369	46.5544	147.597	-25.9105	18.5841	156.014	-29.1171	-3.80687	121.019	8.0762	84.0399	131.907	16.6052	113.331	94.0965	19.9709	100.484	
5	0.0416667	57.3286	1.91967	117.09	35.8879	-7.53692	106.043	9.84674	-16.1335	88.4969	-8.68108	-25.6203	71.9856	60.4901	6.33364	35.9318	55.2709	2.77662	6.87913	43.1205	-1.59176	-19.6156	93.3863	3.5327	25.4466	92.3439	-3.29861	-7.60888	89.0424	-11.0454	-36.0761	114.257	-6.46094	26.3581	120.156	-11.823	2.4128	117.105	-16.1867	-24.5941	140.057	-20.232	43.3314	144.4	-25.5697	21.6598	157.202	-27.6291	-4.49148	124.1	5.55251	80.851	128.182	15.0019	110.957	92.66	19.0739	96.6263	
6	0.05	58.8214	0.686812	118.037	31.9823	-5.96924	108.696	3.89881	-14.6059	87.4188	-13.0179	-25.3834	73.8593	60.7047	5.75499	35.8272	49.1409	3.34291	8.06595	47.531	-3.15699	-18.8696	89.5196	3.84143	24.7213	88.7018	-3.83057	-7.06937	88.3025	-12.1531	-37.5057	117.168	-7.26685	26.8391	119.779	-12.8479	2.48727	119.147	-17.0987	-24.2073	135.725	-20.3423	45.8655	147.29	-27.8959	20.4005	155.541	-29.039	-4.70484	120.181	7.34002	84.0899	125.387	15.1149	113.745	89.5761	18.6659	98.0845	
7	0.0583333	57.742	1.23883	123.097	31.562	-6.107	108.672	4.72667	-14.592	88.457	-14.0098	-23.9672	72.4234	58.0797	6.90191	36.5052	51.1725	1.96572	6.50442	44.2606	-2.18841	-20.2715	90.498	1.94812	23.453	87.996	-4.9579	-7.82458	90.3213	-13.2494	-40.8111	116.623	-8.5642	26.9191	119.708	-13.6184	1.80175	115.282	-16.4219	-23.7314	134.99	-20.3515	47.7977	142.61	-27.0015	23.8223	154.652	-27.9358	-0.773317	118.261	7.75759	80.3359	125.772	15.8641	115.872	87.2166	20.3015	101.856	
8	0.0666667	58.613	-0.0751862	118.644	31.1673	-6.71294	109.932	6.75338	-15.0868	90.2743	-13.7312	-24.2909	76.0081	58.8695	5.4024	35.8789	49.4958	3.1224	9.52422	45.76	-1.70141	-14.7303	90.4736	2.37	25.6093	87.768	-5.68533	-9.01849	86.9984	-11.8231	-33.7219	112.597	-6.65597	31.5655	115.209	-12.9854	5.45246	115.899	-16.8244	-25.8061	135.756	-20.5053	46.8155	141.13	-27.4545	21.5883	153.573	-30.3073	2.57013	121.986	6.88368	82.2343	127.786	14.0925	113.287	90.0996	18.5459	103.226	
9	0.075	56.8849	1.33708	124.739	30.0835	-7.76752	110.415	4.78326	-14.9753	91.7021	-15.4854	-23.4807	76.0782	60.0749	5.38735	36.5937	47.6554	2.56557	14.3701	42.9173	-2.91507	-16.1299	86.0104	3.25517	24.1671	85.8639	-5.48368	-7.79616	84.351	-11.2701	-33.7035	112.566	-7.50533	32.1255	113.044	-13.3747	6.28666	113.078	-17.2857	-23.1378	136.853	-21.7934	47.5482	141.23	-28.0837	23.1143	148.401	-28.4512	0.736067	116.285	5.17108	86.4306	126.655	12.6949	113.071	91.6309	19.6692	104.225	
10	0.0833333	58.0369	0.295443	121.703	27.357	-6.90324	109.834	0.661904	-15.9805	92.3145	-16.395	-25.427	76.2643	57.8356	5.77447	41.4939	45.7824	2.13918	11.1124	45.3026	-2.94108	-13.6036	87.3561	1.2737	25.5972	87.6313	-5.36095	-3.65015	85.1171	-13.3319	-33.4715	113.071	-8.93939	29.0034	113.744	-13.9755	6.04543	112.97	-18.0717	-22.2477	136.294	-23.2584	47.9494	139.992	-28.912	23.5152	149.049	-29.9505	-2.04454	116.219	5.32331	88.3442	125.701	14.6772	117.258	89.6031	17.1231	105.573	
11	0.0916667	56.7878	-0.35267	126.925	32.1617	-8.93051	111.017	0.400523	-16.9764	89.8501	-19.4435	-25.8787	76.5942	54.5288	5.40095	40.0672	47.0885	2.12246	11.8594	40.9044	-3.5765	-15.2406	83.9759	2.22431	29.4413	84.5587	-4.99722	-4.71826	80.6522	-11.7365	-33.5805	111.493	-8.21708	30.0765	113.814	-14.6257	6.57871	111.042	-18.7353	-24.1221	131.331	-21.466	44.0388	141	-28.8819	21.0447	149.411	-31.8799	-0.153522	116.72	4.773	83.1489	123.937	13.6987	116.077	84.1477	17.4545	102.598	
12	0.1	53.6887	0.207115	126.387	30.1921	-9.43125	111.421	2.48346	-18.1382	95.1678	-17.2799	-26.6053	80.5069	52.5503	6.7741	38.1464	46.4358	2.15904	12.1057	37.9319	-2.38122	-10.3933	82.2	3.07965	24.4693	84.6375	-6.1146	-7.14923	82.182	-12.7586	-34.0968	109.114	-7.93481	28.5907	114.018	-14.7175	2.94435	108.697	-17.0598	-24.0399	133.223	-20.8542	44.6458	138.048	-28.0303	21.6593	145.495	-31.0264	-1.41308	114.584	7.73436	84.1781	122.625	13.3099	115.144	84.7063	20.0883	105.678	
13	0.108333	55.7656	-0.953837	121.64	27.7647	-10.454	110.924	1.79514	-18.6311	93.1552	-18.1379	-28.5372	82.032	55.5868	6.06268	39.2685	46.5252	3.51957	11.2138	37.1644	-1.02655	-17.0798	86.3828	3.76433	27.476	83.6714	-2.85607	-4.31665	81.8157	-10.4312	-37.7016	110.59	-7.03999	26.6056	106.992	-11.4832	3.96622	109.324	-15.5145	-21.7895	132.971	-20.1888	46.8194	139.004	-27.962	19.3682	142.666	-28.8732	-0.155069	113.582	7.91449	86.2635	121.702	14.559	112.829	82.9574	20.8071	104.939	
